<svg width="71" height="18" viewBox="0 0 71 18" fill="none" xmlns="http://www.w3.org/2000/svg">
<path d="M0.191024 14V1.4H5.37502C6.49102 1.4 7.44502 1.58 8.23702 1.94C9.04102 2.3 9.65902 2.816 10.091 3.488C10.523 4.16 10.739 4.958 10.739 5.882C10.739 6.806 10.523 7.604 10.091 8.276C9.65902 8.948 9.04102 9.464 8.23702 9.824C7.44502 10.184 6.49102 10.364 5.37502 10.364H1.48702L2.53102 9.266V14H0.191024ZM2.53102 9.518L1.48702 8.384H5.26702C6.29902 8.384 7.07302 8.168 7.58902 7.736C8.11702 7.292 8.38102 6.674 8.38102 5.882C8.38102 5.078 8.11702 4.46 7.58902 4.028C7.07302 3.596 6.29902 3.38 5.26702 3.38H1.48702L2.53102 2.228V9.518ZM17.1446 14.126C16.1606 14.126 15.2846 13.916 14.5166 13.496C13.7486 13.064 13.1426 12.476 12.6986 11.732C12.2546 10.988 12.0326 10.142 12.0326 9.194C12.0326 8.234 12.2546 7.388 12.6986 6.656C13.1426 5.912 13.7486 5.33 14.5166 4.91C15.2846 4.49 16.1606 4.28 17.1446 4.28C18.1406 4.28 19.0226 4.49 19.7906 4.91C20.5706 5.33 21.1766 5.906 21.6086 6.638C22.0526 7.37 22.2746 8.222 22.2746 9.194C22.2746 10.142 22.0526 10.988 21.6086 11.732C21.1766 12.476 20.5706 13.064 19.7906 13.496C19.0226 13.916 18.1406 14.126 17.1446 14.126ZM17.1446 12.2C17.6966 12.2 18.1886 12.08 18.6206 11.84C19.0526 11.6 19.3886 11.252 19.6286 10.796C19.8806 10.34 20.0066 9.806 20.0066 9.194C20.0066 8.57 19.8806 8.036 19.6286 7.592C19.3886 7.136 19.0526 6.788 18.6206 6.548C18.1886 6.308 17.7026 6.188 17.1626 6.188C16.6106 6.188 16.1186 6.308 15.6866 6.548C15.2666 6.788 14.9306 7.136 14.6786 7.592C14.4266 8.036 14.3006 8.57 14.3006 9.194C14.3006 9.806 14.4266 10.34 14.6786 10.796C14.9306 11.252 15.2666 11.6 15.6866 11.84C16.1186 12.08 16.6046 12.2 17.1446 12.2ZM29.7542 14.126C28.9742 14.126 28.2602 13.946 27.6122 13.586C26.9762 13.226 26.4662 12.686 26.0822 11.966C25.7102 11.234 25.5242 10.31 25.5242 9.194C25.5242 8.066 25.7042 7.142 26.0642 6.422C26.4362 5.702 26.9402 5.168 27.5762 4.82C28.2122 4.46 28.9382 4.28 29.7542 4.28C30.7022 4.28 31.5362 4.484 32.2562 4.892C32.9882 5.3 33.5642 5.87 33.9842 6.602C34.4162 7.334 34.6322 8.198 34.6322 9.194C34.6322 10.19 34.4162 11.06 33.9842 11.804C33.5642 12.536 32.9882 13.106 32.2562 13.514C31.5362 13.922 30.7022 14.126 29.7542 14.126ZM24.4262 17.492V4.388H26.5682V6.656L26.4962 9.212L26.6762 11.768V17.492H24.4262ZM29.5022 12.2C30.0422 12.2 30.5222 12.08 30.9422 11.84C31.3742 11.6 31.7162 11.252 31.9682 10.796C32.2202 10.34 32.3462 9.806 32.3462 9.194C32.3462 8.57 32.2202 8.036 31.9682 7.592C31.7162 7.136 31.3742 6.788 30.9422 6.548C30.5222 6.308 30.0422 6.188 29.5022 6.188C28.9622 6.188 28.4762 6.308 28.0442 6.548C27.6122 6.788 27.2702 7.136 27.0182 7.592C26.7662 8.036 26.6402 8.57 26.6402 9.194C26.6402 9.806 26.7662 10.34 27.0182 10.796C27.2702 11.252 27.6122 11.6 28.0442 11.84C28.4762 12.08 28.9622 12.2 29.5022 12.2ZM40.834 14.126C40.018 14.126 39.298 13.976 38.674 13.676C38.05 13.364 37.564 12.896 37.216 12.272C36.868 11.636 36.694 10.838 36.694 9.878V4.388H38.944V9.572C38.944 10.436 39.136 11.084 39.52 11.516C39.916 11.936 40.474 12.146 41.194 12.146C41.722 12.146 42.178 12.038 42.562 11.822C42.958 11.606 43.264 11.282 43.48 10.85C43.708 10.418 43.822 9.884 43.822 9.248V4.388H46.072V14H43.93V11.408L44.308 12.2C43.984 12.824 43.51 13.304 42.886 13.64C42.262 13.964 41.578 14.126 40.834 14.126ZM43.12 2.876C42.82 2.876 42.562 2.78 42.346 2.588C42.142 2.384 42.04 2.12 42.04 1.796C42.04 1.472 42.142 1.208 42.346 1.004C42.562 0.799999 42.82 0.698 43.12 0.698C43.42 0.698 43.672 0.799999 43.876 1.004C44.092 1.208 44.2 1.472 44.2 1.796C44.2 2.12 44.092 2.384 43.876 2.588C43.672 2.78 43.42 2.876 43.12 2.876ZM39.628 2.876C39.328 2.876 39.07 2.78 38.854 2.588C38.65 2.384 38.548 2.12 38.548 1.796C38.548 1.472 38.65 1.208 38.854 1.004C39.07 0.799999 39.328 0.698 39.628 0.698C39.928 0.698 40.18 0.799999 40.384 1.004C40.6 1.208 40.708 1.472 40.708 1.796C40.708 2.12 40.6 2.384 40.384 2.588C40.18 2.78 39.928 2.876 39.628 2.876ZM49.018 14V0.643999H51.268V14H49.018ZM58.7391 14.126C57.6711 14.126 56.7351 13.916 55.9311 13.496C55.1391 13.064 54.5211 12.476 54.0771 11.732C53.6451 10.988 53.4291 10.142 53.4291 9.194C53.4291 8.234 53.6391 7.388 54.0591 6.656C54.4911 5.912 55.0791 5.33 55.8231 4.91C56.5791 4.49 57.4371 4.28 58.3971 4.28C59.3331 4.28 60.1671 4.484 60.8991 4.892C61.6311 5.3 62.2071 5.876 62.6271 6.62C63.0471 7.364 63.2571 8.24 63.2571 9.248C63.2571 9.344 63.2511 9.452 63.2391 9.572C63.2391 9.692 63.2331 9.806 63.2211 9.914H55.2111V8.42H62.0331L61.1511 8.888C61.1631 8.336 61.0491 7.85 60.8091 7.43C60.5691 7.01 60.2391 6.68 59.8191 6.44C59.4111 6.2 58.9371 6.08 58.3971 6.08C57.8451 6.08 57.3591 6.2 56.9391 6.44C56.5311 6.68 56.2071 7.016 55.9671 7.448C55.7391 7.868 55.6251 8.366 55.6251 8.942V9.302C55.6251 9.878 55.7571 10.388 56.0211 10.832C56.2851 11.276 56.6571 11.618 57.1371 11.858C57.6171 12.098 58.1691 12.218 58.7931 12.218C59.3331 12.218 59.8191 12.134 60.2511 11.966C60.6831 11.798 61.0671 11.534 61.4031 11.174L62.6091 12.56C62.1771 13.064 61.6311 13.454 60.9711 13.73C60.3231 13.994 59.5791 14.126 58.7391 14.126ZM65.4184 14V4.388H67.5604V7.034L67.3084 6.26C67.5964 5.612 68.0464 5.12 68.6584 4.784C69.2824 4.448 70.0564 4.28 70.9804 4.28V6.422C70.8844 6.398 70.7944 6.386 70.7104 6.386C70.6264 6.374 70.5424 6.368 70.4584 6.368C69.6064 6.368 68.9284 6.62 68.4244 7.124C67.9204 7.616 67.6684 8.354 67.6684 9.338V14H65.4184Z" fill="#9197E9"/>
</svg>
